<svg aria-hidden="true" style="position: absolute; width: 0; height: 0; overflow: hidden;" version="1.1" xmlns="http://www.w3.org/2000/svg" xmlns:xlink="http://www.w3.org/1999/xlink">
<defs>
<symbol id="icon-insights" viewBox="0 0 24 24">
<path d="M21 8.016q-0.703 0-1.195 0.398t-0.703 0.984-0.023 1.102l-3.563 3.563q-0.516-0.141-1.031 0l-2.531-2.531q0.141-0.563-0.047-1.148t-0.68-0.984-1.242-0.398q-0.703 0-1.195 0.398t-0.68 0.984-0.047 1.148l-4.547 4.547q-0.563-0.188-1.125 0.023t-0.984 0.703-0.422 1.195q0 0.844 0.586 1.43t1.43 0.586q0.703 0 1.195-0.422t0.703-0.984 0.023-1.125l4.547-4.547q0.516 0.141 1.031 0l2.578 2.531q-0.188 0.563 0 1.148t0.68 0.984 1.242 0.398q0.703 0 1.195-0.398t0.703-0.984 0.023-1.148l3.563-3.516q0.563 0.141 1.125-0.047t0.984-0.68 0.422-1.242q0-0.797-0.586-1.383t-1.43-0.586zM15 9l0.938-2.063 2.063-0.938-2.063-0.938-0.938-2.063-0.938 2.063-2.063 0.938 2.063 0.938zM3.516 11.016l0.469-2.016 2.016-0.516-2.016-0.469-0.469-2.016-0.516 2.016-2.016 0.469 2.016 0.516z"></path>
</symbol>
<symbol id="icon-bell" viewBox="0 0 24 24">
<path d="M17 8c0 4.011 0.947 6.52 1.851 8h-13.702c0.904-1.48 1.851-3.989 1.851-8 0-1.381 0.559-2.63 1.464-3.536s2.155-1.464 3.536-1.464 2.63 0.559 3.536 1.464 1.464 2.155 1.464 3.536zM19 8c0-1.933-0.785-3.684-2.050-4.95s-3.017-2.050-4.95-2.050-3.684 0.785-4.95 2.050-2.050 3.017-2.050 4.95c0 6.127-2.393 8.047-2.563 8.174-0.453 0.308-0.573 0.924-0.269 1.381 0.192 0.287 0.506 0.443 0.832 0.445h18c0.552 0 1-0.448 1-1 0-0.339-0.168-0.638-0.429-0.821-0.176-0.13-2.571-2.050-2.571-8.179zM12.865 20.498c-0.139 0.239-0.359 0.399-0.608 0.465s-0.52 0.037-0.759-0.101c-0.162-0.094-0.283-0.222-0.359-0.357-0.274-0.48-0.884-0.647-1.364-0.373s-0.647 0.884-0.373 1.364c0.25 0.439 0.623 0.823 1.093 1.096 0.716 0.416 1.535 0.501 2.276 0.304s1.409-0.678 1.824-1.394c0.277-0.478 0.114-1.090-0.363-1.367s-1.090-0.114-1.367 0.363z"></path>
</symbol>
<symbol id="icon-chevron-left" viewBox="0 0 24 24">
<path d="M15.707 17.293l-5.293-5.293 5.293-5.293c0.391-0.391 0.391-1.024 0-1.414s-1.024-0.391-1.414 0l-6 6c-0.391 0.391-0.391 1.024 0 1.414l6 6c0.391 0.391 1.024 0.391 1.414 0s0.391-1.024 0-1.414z"></path>
</symbol>
<symbol id="icon-chevron-right" viewBox="0 0 24 24">
<path d="M9.707 18.707l6-6c0.391-0.391 0.391-1.024 0-1.414l-6-6c-0.391-0.391-1.024-0.391-1.414 0s-0.391 1.024 0 1.414l5.293 5.293-5.293 5.293c-0.391 0.391-0.391 1.024 0 1.414s1.024 0.391 1.414 0z"></path>
</symbol>
<symbol id="icon-chevrons-down" viewBox="0 0 24 24">
<path d="M6.293 13.707l5 5c0.391 0.391 1.024 0.391 1.414 0l5-5c0.391-0.391 0.391-1.024 0-1.414s-1.024-0.391-1.414 0l-4.293 4.293-4.293-4.293c-0.391-0.391-1.024-0.391-1.414 0s-0.391 1.024 0 1.414zM6.293 6.707l5 5c0.391 0.391 1.024 0.391 1.414 0l5-5c0.391-0.391 0.391-1.024 0-1.414s-1.024-0.391-1.414 0l-4.293 4.293-4.293-4.293c-0.391-0.391-1.024-0.391-1.414 0s-0.391 1.024 0 1.414z"></path>
</symbol>
<symbol id="icon-chevrons-left" viewBox="0 0 24 24">
<path d="M11.707 16.293l-4.293-4.293 4.293-4.293c0.391-0.391 0.391-1.024 0-1.414s-1.024-0.391-1.414 0l-5 5c-0.391 0.391-0.391 1.024 0 1.414l5 5c0.391 0.391 1.024 0.391 1.414 0s0.391-1.024 0-1.414zM18.707 16.293l-4.293-4.293 4.293-4.293c0.391-0.391 0.391-1.024 0-1.414s-1.024-0.391-1.414 0l-5 5c-0.391 0.391-0.391 1.024 0 1.414l5 5c0.391 0.391 1.024 0.391 1.414 0s0.391-1.024 0-1.414z"></path>
</symbol>
<symbol id="icon-chevrons-right" viewBox="0 0 24 24">
<path d="M13.707 17.707l5-5c0.391-0.391 0.391-1.024 0-1.414l-5-5c-0.391-0.391-1.024-0.391-1.414 0s-0.391 1.024 0 1.414l4.293 4.293-4.293 4.293c-0.391 0.391-0.391 1.024 0 1.414s1.024 0.391 1.414 0zM6.707 17.707l5-5c0.391-0.391 0.391-1.024 0-1.414l-5-5c-0.391-0.391-1.024-0.391-1.414 0s-0.391 1.024 0 1.414l4.293 4.293-4.293 4.293c-0.391 0.391-0.391 1.024 0 1.414s1.024 0.391 1.414 0z"></path>
</symbol>
<symbol id="icon-chevrons-up" viewBox="0 0 24 24">
<path d="M17.707 10.293l-5-5c-0.391-0.391-1.024-0.391-1.414 0l-5 5c-0.391 0.391-0.391 1.024 0 1.414s1.024 0.391 1.414 0l4.293-4.293 4.293 4.293c0.391 0.391 1.024 0.391 1.414 0s0.391-1.024 0-1.414zM17.707 17.293l-5-5c-0.391-0.391-1.024-0.391-1.414 0l-5 5c-0.391 0.391-0.391 1.024 0 1.414s1.024 0.391 1.414 0l4.293-4.293 4.293 4.293c0.391 0.391 1.024 0.391 1.414 0s0.391-1.024 0-1.414z"></path>
</symbol>
<symbol id="icon-cloud-rain" viewBox="0 0 24 24">
<path d="M15 13v8c0 0.552 0.448 1 1 1s1-0.448 1-1v-8c0-0.552-0.448-1-1-1s-1 0.448-1 1zM7 13v8c0 0.552 0.448 1 1 1s1-0.448 1-1v-8c0-0.552-0.448-1-1-1s-1 0.448-1 1zM11 15v8c0 0.552 0.448 1 1 1s1-0.448 1-1v-8c0-0.552-0.448-1-1-1s-1 0.448-1 1zM20.401 17.496c1.517-0.665 2.623-1.883 3.181-3.312s0.572-3.074-0.092-4.591c-0.574-1.311-1.563-2.316-2.752-2.925-0.836-0.428-1.771-0.66-2.73-0.668h-0.528c-0.725-2.057-2.143-3.708-3.915-4.753-1.983-1.169-4.415-1.582-6.821-0.961s-4.334 2.161-5.503 4.144-1.582 4.415-0.961 6.821c0.509 1.97 1.634 3.623 3.099 4.783 0.433 0.343 1.062 0.27 1.405-0.163s0.27-1.062-0.163-1.405c-1.132-0.897-2.008-2.179-2.405-3.716-0.483-1.871-0.163-3.76 0.748-5.305s2.408-2.739 4.28-3.223 3.761-0.163 5.305 0.748 2.739 2.408 3.223 4.28c0.115 0.435 0.505 0.75 0.968 0.75h1.252c0.647 0.005 1.275 0.162 1.834 0.448 0.793 0.406 1.448 1.073 1.832 1.947 0.443 1.012 0.435 2.106 0.062 3.061s-1.109 1.765-2.121 2.208c-0.506 0.222-0.736 0.811-0.515 1.317s0.811 0.736 1.317 0.515z"></path>
</symbol>
<symbol id="icon-code" viewBox="0 0 24 24">
<path d="M16.707 18.707l6-6c0.391-0.391 0.391-1.024 0-1.414l-6-6c-0.391-0.391-1.024-0.391-1.414 0s-0.391 1.024 0 1.414l5.293 5.293-5.293 5.293c-0.391 0.391-0.391 1.024 0 1.414s1.024 0.391 1.414 0zM7.293 5.293l-6 6c-0.391 0.391-0.391 1.024 0 1.414l6 6c0.391 0.391 1.024 0.391 1.414 0s0.391-1.024 0-1.414l-5.293-5.293 5.293-5.293c0.391-0.391 0.391-1.024 0-1.414s-1.024-0.391-1.414 0z"></path>
</symbol>
<symbol id="icon-coffee" viewBox="0 0 24 24">
<path d="M19 15v-6c0.829 0 1.577 0.335 2.121 0.879s0.879 1.292 0.879 2.121-0.335 1.577-0.879 2.121-1.292 0.879-2.121 0.879zM2 7c-0.552 0-1 0.448-1 1v9c0 1.38 0.561 2.632 1.464 3.536s2.156 1.464 3.536 1.464h8c1.38 0 2.632-0.561 3.536-1.464s1.464-2.156 1.464-3.536c1.38 0 2.632-0.561 3.536-1.464s1.464-2.156 1.464-3.536-0.561-2.632-1.464-3.536-2.156-1.464-3.536-1.464h-1zM3 9h14v8c0 0.829-0.335 1.577-0.879 2.121s-1.292 0.879-2.121 0.879h-8c-0.829 0-1.577-0.335-2.121-0.879s-0.879-1.292-0.879-2.121zM5 1v3c0 0.552 0.448 1 1 1s1-0.448 1-1v-3c0-0.552-0.448-1-1-1s-1 0.448-1 1zM9 1v3c0 0.552 0.448 1 1 1s1-0.448 1-1v-3c0-0.552-0.448-1-1-1s-1 0.448-1 1zM13 1v3c0 0.552 0.448 1 1 1s1-0.448 1-1v-3c0-0.552-0.448-1-1-1s-1 0.448-1 1z"></path>
</symbol>
<symbol id="icon-eye" viewBox="0 0 24 24">
<path d="M0.106 11.553c-0.136 0.274-0.146 0.603 0 0.894 0 0 0.396 0.789 1.12 1.843 0.451 0.656 1.038 1.432 1.757 2.218 0.894 0.979 2.004 1.987 3.319 2.8 1.595 0.986 3.506 1.692 5.698 1.692s4.103-0.706 5.698-1.692c1.315-0.813 2.425-1.821 3.319-2.8 0.718-0.786 1.306-1.562 1.757-2.218 0.724-1.054 1.12-1.843 1.12-1.843 0.136-0.274 0.146-0.603 0-0.894 0 0-0.396-0.789-1.12-1.843-0.451-0.656-1.038-1.432-1.757-2.218-0.894-0.979-2.004-1.987-3.319-2.8-1.595-0.986-3.506-1.692-5.698-1.692s-4.103 0.706-5.698 1.692c-1.315 0.813-2.425 1.821-3.319 2.8-0.719 0.786-1.306 1.561-1.757 2.218-0.724 1.054-1.12 1.843-1.12 1.843zM2.14 12c0.163-0.281 0.407-0.681 0.734-1.158 0.41-0.596 0.94-1.296 1.585-2.001 0.805-0.881 1.775-1.756 2.894-2.448 1.35-0.834 2.901-1.393 4.647-1.393s3.297 0.559 4.646 1.393c1.119 0.692 2.089 1.567 2.894 2.448 0.644 0.705 1.175 1.405 1.585 2.001 0.328 0.477 0.572 0.876 0.734 1.158-0.163 0.281-0.407 0.681-0.734 1.158-0.41 0.596-0.94 1.296-1.585 2.001-0.805 0.881-1.775 1.756-2.894 2.448-1.349 0.834-2.9 1.393-4.646 1.393s-3.297-0.559-4.646-1.393c-1.119-0.692-2.089-1.567-2.894-2.448-0.644-0.705-1.175-1.405-1.585-2.001-0.328-0.477-0.572-0.877-0.735-1.158zM16 12c0-1.104-0.449-2.106-1.172-2.828s-1.724-1.172-2.828-1.172-2.106 0.449-2.828 1.172-1.172 1.724-1.172 2.828 0.449 2.106 1.172 2.828 1.724 1.172 2.828 1.172 2.106-0.449 2.828-1.172 1.172-1.724 1.172-2.828zM14 12c0 0.553-0.223 1.051-0.586 1.414s-0.861 0.586-1.414 0.586-1.051-0.223-1.414-0.586-0.586-0.861-0.586-1.414 0.223-1.051 0.586-1.414 0.861-0.586 1.414-0.586 1.051 0.223 1.414 0.586 0.586 0.861 0.586 1.414z"></path>
</symbol>
<symbol id="icon-file" viewBox="0 0 24 24">
<path d="M17.586 8h-3.586v-3.586zM20.707 8.293l-7-7c-0.092-0.092-0.202-0.166-0.324-0.217s-0.253-0.076-0.383-0.076h-7c-0.828 0-1.58 0.337-2.121 0.879s-0.879 1.293-0.879 2.121v16c0 0.828 0.337 1.58 0.879 2.121s1.293 0.879 2.121 0.879h12c0.828 0 1.58-0.337 2.121-0.879s0.879-1.293 0.879-2.121v-11c0-0.276-0.112-0.526-0.293-0.707zM12 3v6c0 0.552 0.448 1 1 1h6v10c0 0.276-0.111 0.525-0.293 0.707s-0.431 0.293-0.707 0.293h-12c-0.276 0-0.525-0.111-0.707-0.293s-0.293-0.431-0.293-0.707v-16c0-0.276 0.111-0.525 0.293-0.707s0.431-0.293 0.707-0.293z"></path>
</symbol>
<symbol id="icon-file-plus" viewBox="0 0 24 24">
<path d="M17.586 7h-2.586v-2.586zM20.707 7.293l-6-6c-0.092-0.092-0.202-0.166-0.324-0.217s-0.253-0.076-0.383-0.076h-8c-0.828 0-1.58 0.337-2.121 0.879s-0.879 1.293-0.879 2.121v16c0 0.828 0.337 1.58 0.879 2.121s1.293 0.879 2.121 0.879h12c0.828 0 1.58-0.337 2.121-0.879s0.879-1.293 0.879-2.121v-12c0-0.276-0.112-0.526-0.293-0.707zM13 3v5c0 0.552 0.448 1 1 1h5v11c0 0.276-0.111 0.525-0.293 0.707s-0.431 0.293-0.707 0.293h-12c-0.276 0-0.525-0.111-0.707-0.293s-0.293-0.431-0.293-0.707v-16c0-0.276 0.111-0.525 0.293-0.707s0.431-0.293 0.707-0.293zM9 16h2v2c0 0.552 0.448 1 1 1s1-0.448 1-1v-2h2c0.552 0 1-0.448 1-1s-0.448-1-1-1h-2v-2c0-0.552-0.448-1-1-1s-1 0.448-1 1v2h-2c-0.552 0-1 0.448-1 1s0.448 1 1 1z"></path>
</symbol>
<symbol id="icon-file-text" viewBox="0 0 24 24">
<path d="M17.586 7h-2.586v-2.586zM20.707 7.293l-6-6c-0.092-0.092-0.202-0.166-0.324-0.217s-0.253-0.076-0.383-0.076h-8c-0.828 0-1.58 0.337-2.121 0.879s-0.879 1.293-0.879 2.121v16c0 0.828 0.337 1.58 0.879 2.121s1.293 0.879 2.121 0.879h12c0.828 0 1.58-0.337 2.121-0.879s0.879-1.293 0.879-2.121v-12c0-0.276-0.112-0.526-0.293-0.707zM13 3v5c0 0.552 0.448 1 1 1h5v11c0 0.276-0.111 0.525-0.293 0.707s-0.431 0.293-0.707 0.293h-12c-0.276 0-0.525-0.111-0.707-0.293s-0.293-0.431-0.293-0.707v-16c0-0.276 0.111-0.525 0.293-0.707s0.431-0.293 0.707-0.293zM16 12h-8c-0.552 0-1 0.448-1 1s0.448 1 1 1h8c0.552 0 1-0.448 1-1s-0.448-1-1-1zM16 16h-8c-0.552 0-1 0.448-1 1s0.448 1 1 1h8c0.552 0 1-0.448 1-1s-0.448-1-1-1zM10 8h-2c-0.552 0-1 0.448-1 1s0.448 1 1 1h2c0.552 0 1-0.448 1-1s-0.448-1-1-1z"></path>
</symbol>
<symbol id="icon-folder" viewBox="0 0 24 24">
<path d="M23 19v-11c0-0.828-0.337-1.58-0.879-2.121s-1.293-0.879-2.121-0.879h-8.465l-1.703-2.555c-0.182-0.27-0.486-0.445-0.832-0.445h-5c-0.828 0-1.58 0.337-2.121 0.879s-0.879 1.293-0.879 2.121v14c0 0.828 0.337 1.58 0.879 2.121s1.293 0.879 2.121 0.879h16c0.828 0 1.58-0.337 2.121-0.879s0.879-1.293 0.879-2.121zM21 19c0 0.276-0.111 0.525-0.293 0.707s-0.431 0.293-0.707 0.293h-16c-0.276 0-0.525-0.111-0.707-0.293s-0.293-0.431-0.293-0.707v-14c0-0.276 0.111-0.525 0.293-0.707s0.431-0.293 0.707-0.293h4.465l1.703 2.555c0.192 0.287 0.506 0.443 0.832 0.445h9c0.276 0 0.525 0.111 0.707 0.293s0.293 0.431 0.293 0.707z"></path>
</symbol>
<symbol id="icon-github" viewBox="0 0 24 24">
<path d="M8.713 18.042c-1.268 0.38-2.060 0.335-2.583 0.17-0.231-0.073-0.431-0.176-0.614-0.302-0.411-0.284-0.727-0.675-1.119-1.172-0.356-0.451-0.85-1.107-1.551-1.476-0.185-0.098-0.386-0.177-0.604-0.232-0.536-0.134-1.079 0.192-1.213 0.728s0.192 1.079 0.728 1.213c0.074 0.023 0.155 0.060 0.155 0.060 0.252 0.133 0.487 0.404 0.914 0.946 0.366 0.464 0.856 1.098 1.553 1.579 0.332 0.229 0.711 0.426 1.149 0.564 1.015 0.321 2.236 0.296 3.76-0.162 0.529-0.159 0.829-0.716 0.67-1.245s-0.716-0.829-1.245-0.67zM17 22v-3.792c0.052-0.684-0.056-1.343-0.292-1.942 0.777-0.171 1.563-0.427 2.297-0.823 2.083-1.124 3.496-3.242 3.496-6.923 0-1.503-0.516-2.887-1.379-3.981 0.355-1.345 0.226-2.726-0.293-3.933-0.122-0.283-0.359-0.482-0.634-0.564-0.357-0.106-1.732-0.309-4.373 1.362-2.273-0.541-4.557-0.509-6.646-0.002-2.639-1.669-4.013-1.466-4.37-1.36-0.296 0.088-0.521 0.3-0.635 0.565-0.554 1.292-0.624 2.672-0.292 3.932-0.93 1.178-1.387 2.601-1.379 4.017 0 3.622 1.389 5.723 3.441 6.859 0.752 0.416 1.56 0.685 2.357 0.867-0.185 0.468-0.286 0.961-0.304 1.456-0.005 0.141-0.003 0.283 0.005 0.424l0.001 3.838c0 0.552 0.448 1 1 1s1-0.448 1-1v-3.87c0-0.021-0.001-0.045-0.002-0.069-0.006-0.084-0.007-0.168-0.004-0.252 0.020-0.568 0.241-1.126 0.665-1.564 0.145-0.149 0.246-0.347 0.274-0.572 0.068-0.548-0.321-1.048-0.869-1.116-0.34-0.042-0.677-0.094-1.006-0.159-0.79-0.156-1.518-0.385-2.147-0.733-1.305-0.723-2.391-2.071-2.41-5.042 0.013-1.241 0.419-2.319 1.224-3.165 0.257-0.273 0.35-0.671 0.212-1.040-0.28-0.748-0.341-1.58-0.14-2.392 0.491 0.107 1.354 0.416 2.647 1.282 0.235 0.157 0.533 0.214 0.825 0.133 1.997-0.557 4.242-0.602 6.47 0.002 0.271 0.073 0.569 0.033 0.818-0.135 1.293-0.866 2.156-1.175 2.647-1.282 0.189 0.766 0.157 1.595-0.141 2.392-0.129 0.352-0.058 0.755 0.213 1.040 0.758 0.795 1.224 1.872 1.224 3.060 0 3.075-1.114 4.445-2.445 5.163-0.623 0.336-1.343 0.555-2.123 0.7-0.322 0.060-0.651 0.106-0.983 0.143-0.21 0.023-0.418 0.114-0.584 0.275-0.397 0.384-0.408 1.017-0.024 1.414 0.067 0.070 0.13 0.143 0.188 0.22 0.34 0.449 0.521 1.015 0.474 1.617 0 0.024-0.001 0.051-0.003 0.078v3.872c0 0.552 0.448 1 1 1s1-0.448 1-1z"></path>
</symbol>
<symbol id="icon-map-pin" viewBox="0 0 24 24">
<path d="M22 10c0-2.761-1.12-5.263-2.929-7.071s-4.31-2.929-7.071-2.929-5.263 1.12-7.071 2.929-2.929 4.31-2.929 7.071c0 0.569 0.053 1.128 0.15 1.676 0.274 1.548 0.899 3.004 1.682 4.32 2.732 4.591 7.613 7.836 7.613 7.836 0.331 0.217 0.765 0.229 1.109 0 0 0 4.882-3.245 7.613-7.836 0.783-1.316 1.408-2.772 1.682-4.32 0.098-0.548 0.151-1.107 0.151-1.676zM20 10c0 0.444-0.041 0.887-0.119 1.328-0.221 1.25-0.737 2.478-1.432 3.646-1.912 3.214-5.036 5.747-6.369 6.74-1.398-0.916-4.588-3.477-6.53-6.74-0.695-1.168-1.211-2.396-1.432-3.646-0.077-0.441-0.118-0.884-0.118-1.328 0-2.209 0.894-4.208 2.343-5.657s3.448-2.343 5.657-2.343 4.208 0.894 5.657 2.343 2.343 3.448 2.343 5.657zM16 10c0-1.104-0.449-2.106-1.172-2.828s-1.724-1.172-2.828-1.172-2.106 0.449-2.828 1.172-1.172 1.724-1.172 2.828 0.449 2.106 1.172 2.828 1.724 1.172 2.828 1.172 2.106-0.449 2.828-1.172 1.172-1.724 1.172-2.828zM14 10c0 0.553-0.223 1.051-0.586 1.414s-0.861 0.586-1.414 0.586-1.051-0.223-1.414-0.586-0.586-0.861-0.586-1.414 0.223-1.051 0.586-1.414 0.861-0.586 1.414-0.586 1.051 0.223 1.414 0.586 0.586 0.861 0.586 1.414z"></path>
</symbol>
<symbol id="icon-minus-circle" viewBox="0 0 24 24">
<path d="M23 12c0-3.037-1.232-5.789-3.222-7.778s-4.741-3.222-7.778-3.222-5.789 1.232-7.778 3.222-3.222 4.741-3.222 7.778 1.232 5.789 3.222 7.778 4.741 3.222 7.778 3.222 5.789-1.232 7.778-3.222 3.222-4.741 3.222-7.778zM21 12c0 2.486-1.006 4.734-2.636 6.364s-3.878 2.636-6.364 2.636-4.734-1.006-6.364-2.636-2.636-3.878-2.636-6.364 1.006-4.734 2.636-6.364 3.878-2.636 6.364-2.636 4.734 1.006 6.364 2.636 2.636 3.878 2.636 6.364zM8 13h8c0.552 0 1-0.448 1-1s-0.448-1-1-1h-8c-0.552 0-1 0.448-1 1s0.448 1 1 1z"></path>
</symbol>
<symbol id="icon-play-circle" viewBox="0 0 24 24">
<path d="M23 12c0-3.037-1.232-5.789-3.222-7.778s-4.741-3.222-7.778-3.222-5.789 1.232-7.778 3.222-3.222 4.741-3.222 7.778 1.232 5.789 3.222 7.778 4.741 3.222 7.778 3.222 5.789-1.232 7.778-3.222 3.222-4.741 3.222-7.778zM21 12c0 2.486-1.006 4.734-2.636 6.364s-3.878 2.636-6.364 2.636-4.734-1.006-6.364-2.636-2.636-3.878-2.636-6.364 1.006-4.734 2.636-6.364 3.878-2.636 6.364-2.636 4.734 1.006 6.364 2.636 2.636 3.878 2.636 6.364zM10.555 7.168c-0.156-0.105-0.348-0.168-0.555-0.168-0.552 0-1 0.448-1 1v8c-0.001 0.188 0.053 0.383 0.168 0.555 0.306 0.46 0.927 0.584 1.387 0.277l6-4c0.103-0.068 0.2-0.162 0.277-0.277 0.306-0.46 0.182-1.080-0.277-1.387zM11 9.869l3.197 2.131-3.197 2.131z"></path>
</symbol>
<symbol id="icon-plus" viewBox="0 0 24 24">
<path d="M5 13h6v6c0 0.552 0.448 1 1 1s1-0.448 1-1v-6h6c0.552 0 1-0.448 1-1s-0.448-1-1-1h-6v-6c0-0.552-0.448-1-1-1s-1 0.448-1 1v6h-6c-0.552 0-1 0.448-1 1s0.448 1 1 1z"></path>
</symbol>
<symbol id="icon-plus-circle" viewBox="0 0 24 24">
<path d="M23 12c0-3.037-1.232-5.789-3.222-7.778s-4.741-3.222-7.778-3.222-5.789 1.232-7.778 3.222-3.222 4.741-3.222 7.778 1.232 5.789 3.222 7.778 4.741 3.222 7.778 3.222 5.789-1.232 7.778-3.222 3.222-4.741 3.222-7.778zM21 12c0 2.486-1.006 4.734-2.636 6.364s-3.878 2.636-6.364 2.636-4.734-1.006-6.364-2.636-2.636-3.878-2.636-6.364 1.006-4.734 2.636-6.364 3.878-2.636 6.364-2.636 4.734 1.006 6.364 2.636 2.636 3.878 2.636 6.364zM8 13h3v3c0 0.552 0.448 1 1 1s1-0.448 1-1v-3h3c0.552 0 1-0.448 1-1s-0.448-1-1-1h-3v-3c0-0.552-0.448-1-1-1s-1 0.448-1 1v3h-3c-0.552 0-1 0.448-1 1s0.448 1 1 1z"></path>
</symbol>
<symbol id="icon-settings" viewBox="0 0 24 24">
<path d="M16 12c0-1.104-0.449-2.106-1.172-2.828s-1.724-1.172-2.828-1.172-2.106 0.449-2.828 1.172-1.172 1.724-1.172 2.828 0.449 2.106 1.172 2.828 1.724 1.172 2.828 1.172 2.106-0.449 2.828-1.172 1.172-1.724 1.172-2.828zM14 12c0 0.553-0.223 1.051-0.586 1.414s-0.861 0.586-1.414 0.586-1.051-0.223-1.414-0.586-0.586-0.861-0.586-1.414 0.223-1.051 0.586-1.414 0.861-0.586 1.414-0.586 1.051 0.223 1.414 0.586 0.586 0.861 0.586 1.414zM20.315 15.404c0.046-0.105 0.112-0.191 0.192-0.257 0.112-0.092 0.251-0.146 0.403-0.147h0.090c0.828 0 1.58-0.337 2.121-0.879s0.879-1.293 0.879-2.121-0.337-1.58-0.879-2.121-1.293-0.879-2.121-0.879h-0.159c-0.11-0.001-0.215-0.028-0.308-0.076-0.127-0.066-0.23-0.172-0.292-0.312-0.003-0.029-0.004-0.059-0.004-0.089-0.024-0.055-0.040-0.111-0.049-0.168 0.020-0.334 0.077-0.454 0.168-0.547l0.062-0.062c0.585-0.586 0.878-1.356 0.877-2.122s-0.294-1.536-0.881-2.122c-0.586-0.585-1.356-0.878-2.122-0.877s-1.536 0.294-2.12 0.879l-0.046 0.046c-0.083 0.080-0.183 0.136-0.288 0.166-0.14 0.039-0.291 0.032-0.438-0.033-0.101-0.044-0.187-0.11-0.253-0.19-0.092-0.112-0.146-0.251-0.147-0.403v-0.090c0-0.828-0.337-1.58-0.879-2.121s-1.293-0.879-2.121-0.879-1.58 0.337-2.121 0.879-0.879 1.293-0.879 2.121v0.159c-0.001 0.11-0.028 0.215-0.076 0.308-0.066 0.127-0.172 0.23-0.312 0.292-0.029 0.003-0.059 0.004-0.089 0.004-0.055 0.024-0.111 0.040-0.168 0.049-0.335-0.021-0.455-0.078-0.548-0.169l-0.062-0.062c-0.586-0.585-1.355-0.878-2.122-0.878s-1.535 0.294-2.122 0.882c-0.585 0.586-0.878 1.355-0.878 2.122s0.294 1.536 0.879 2.12l0.048 0.047c0.080 0.083 0.136 0.183 0.166 0.288 0.039 0.14 0.032 0.291-0.031 0.434-0.006 0.016-0.013 0.034-0.021 0.052-0.041 0.109-0.108 0.203-0.191 0.275-0.11 0.095-0.25 0.153-0.383 0.156h-0.090c-0.828 0-1.58 0.337-2.121 0.879s-0.879 1.294-0.879 2.122 0.337 1.58 0.879 2.121 1.293 0.879 2.121 0.879h0.159c0.11 0.001 0.215 0.028 0.308 0.076 0.128 0.067 0.233 0.174 0.296 0.321 0.024 0.055 0.040 0.111 0.049 0.168-0.020 0.334-0.077 0.454-0.168 0.547l-0.062 0.062c-0.585 0.586-0.878 1.356-0.877 2.122s0.294 1.536 0.881 2.122c0.586 0.585 1.356 0.878 2.122 0.877s1.536-0.294 2.12-0.879l0.047-0.048c0.083-0.080 0.183-0.136 0.288-0.166 0.14-0.039 0.291-0.032 0.434 0.031 0.016 0.006 0.034 0.013 0.052 0.021 0.109 0.041 0.203 0.108 0.275 0.191 0.095 0.11 0.153 0.25 0.156 0.383v0.092c0 0.828 0.337 1.58 0.879 2.121s1.293 0.879 2.121 0.879 1.58-0.337 2.121-0.879 0.879-1.293 0.879-2.121v-0.159c0.001-0.11 0.028-0.215 0.076-0.308 0.067-0.128 0.174-0.233 0.321-0.296 0.055-0.024 0.111-0.040 0.168-0.049 0.334 0.020 0.454 0.077 0.547 0.168l0.062 0.062c0.586 0.585 1.356 0.878 2.122 0.877s1.536-0.294 2.122-0.881c0.585-0.586 0.878-1.356 0.877-2.122s-0.294-1.536-0.879-2.12l-0.048-0.047c-0.080-0.083-0.136-0.183-0.166-0.288-0.039-0.14-0.032-0.291 0.031-0.434zM18.396 9.302c-0.012-0.201-0.038-0.297-0.076-0.382v0.080c0 0.043 0.003 0.084 0.008 0.125 0.021 0.060 0.043 0.119 0.068 0.177 0.004 0.090 0.005 0.091 0.005 0.092 0.249 0.581 0.684 1.030 1.208 1.303 0.371 0.193 0.785 0.298 1.211 0.303h0.18c0.276 0 0.525 0.111 0.707 0.293s0.293 0.431 0.293 0.707-0.111 0.525-0.293 0.707-0.431 0.293-0.707 0.293h-0.090c-0.637 0.003-1.22 0.228-1.675 0.603-0.323 0.266-0.581 0.607-0.75 0.993-0.257 0.582-0.288 1.21-0.127 1.782 0.119 0.423 0.341 0.814 0.652 1.136l0.072 0.073c0.196 0.196 0.294 0.45 0.294 0.707s-0.097 0.512-0.292 0.707c-0.197 0.197-0.451 0.295-0.709 0.295s-0.512-0.097-0.707-0.292l-0.061-0.061c-0.463-0.453-1.040-0.702-1.632-0.752-0.437-0.037-0.882 0.034-1.293 0.212-0.578 0.248-1.027 0.683-1.3 1.206-0.193 0.371-0.298 0.785-0.303 1.211v0.181c0 0.276-0.111 0.525-0.293 0.707s-0.43 0.292-0.706 0.292-0.525-0.111-0.707-0.293-0.293-0.431-0.293-0.707v-0.090c-0.015-0.66-0.255-1.242-0.644-1.692-0.284-0.328-0.646-0.585-1.058-0.744-0.575-0.247-1.193-0.274-1.756-0.116-0.423 0.119-0.814 0.341-1.136 0.652l-0.073 0.072c-0.196 0.196-0.45 0.294-0.707 0.294s-0.512-0.097-0.707-0.292c-0.197-0.197-0.295-0.451-0.295-0.709s0.097-0.512 0.292-0.707l0.061-0.061c0.453-0.463 0.702-1.040 0.752-1.632 0.037-0.437-0.034-0.882-0.212-1.293-0.248-0.578-0.683-1.027-1.206-1.3-0.371-0.193-0.785-0.298-1.211-0.303l-0.18 0.001c-0.276 0-0.525-0.111-0.707-0.293s-0.293-0.431-0.293-0.707 0.111-0.525 0.293-0.707 0.431-0.293 0.707-0.293h0.090c0.66-0.015 1.242-0.255 1.692-0.644 0.328-0.284 0.585-0.646 0.744-1.058 0.247-0.575 0.274-1.193 0.116-1.756-0.119-0.423-0.341-0.814-0.652-1.136l-0.073-0.073c-0.196-0.196-0.294-0.45-0.294-0.707s0.097-0.512 0.292-0.707c0.197-0.197 0.451-0.295 0.709-0.295s0.512 0.097 0.707 0.292l0.061 0.061c0.463 0.453 1.040 0.702 1.632 0.752 0.37 0.032 0.745-0.014 1.101-0.137 0.096-0.012 0.186-0.036 0.266-0.072-0.031 0.001-0.061 0.003-0.089 0.004-0.201 0.012-0.297 0.038-0.382 0.076h0.080c0.043 0 0.084-0.003 0.125-0.008 0.060-0.021 0.119-0.043 0.177-0.068 0.090-0.004 0.091-0.005 0.092-0.005 0.581-0.249 1.030-0.684 1.303-1.208 0.193-0.37 0.298-0.785 0.303-1.21v-0.181c0-0.276 0.111-0.525 0.293-0.707s0.431-0.293 0.707-0.293 0.525 0.111 0.707 0.293 0.293 0.431 0.293 0.707v0.090c0.003 0.637 0.228 1.22 0.603 1.675 0.266 0.323 0.607 0.581 0.996 0.751 0.578 0.255 1.206 0.286 1.778 0.125 0.423-0.119 0.814-0.341 1.136-0.652l0.073-0.072c0.196-0.196 0.45-0.294 0.707-0.294s0.512 0.097 0.707 0.292c0.197 0.197 0.295 0.451 0.295 0.709s-0.097 0.512-0.292 0.707l-0.061 0.061c-0.453 0.463-0.702 1.040-0.752 1.632-0.032 0.37 0.014 0.745 0.137 1.101 0.012 0.095 0.037 0.185 0.072 0.266-0.001-0.032-0.002-0.062-0.004-0.089z"></path>
</symbol>
<symbol id="icon-shield" viewBox="0 0 24 24">
<path d="M12 20.862c-1.184-0.672-4.42-2.695-6.050-5.549-0.079-0.138-0.153-0.276-0.223-0.417-0.456-0.911-0.727-1.878-0.727-2.896v-6.307l7-2.625 7 2.625v6.307c0 1.018-0.271 1.985-0.726 2.897-0.070 0.14-0.145 0.279-0.223 0.417-1.631 2.854-4.867 4.876-6.050 5.549zM12.447 22.894c0 0 4.989-2.475 7.34-6.589 0.096-0.168 0.188-0.34 0.276-0.515 0.568-1.135 0.937-2.408 0.937-3.79v-7c0-0.426-0.267-0.79-0.649-0.936l-8-3c-0.236-0.089-0.485-0.082-0.702 0l-8 3c-0.399 0.149-0.646 0.527-0.649 0.936v7c0 1.382 0.369 2.655 0.938 3.791 0.087 0.175 0.179 0.346 0.276 0.515 2.351 4.114 7.34 6.589 7.34 6.589 0.292 0.146 0.62 0.136 0.894 0z"></path>
</symbol>
<symbol id="icon-star" viewBox="0 0 24 24">
<path d="M12.897 1.557c-0.092-0.189-0.248-0.352-0.454-0.454-0.495-0.244-1.095-0.041-1.339 0.454l-2.858 5.789-6.391 0.935c-0.208 0.029-0.411 0.127-0.571 0.291-0.386 0.396-0.377 1.029 0.018 1.414l4.623 4.503-1.091 6.362c-0.036 0.207-0.006 0.431 0.101 0.634 0.257 0.489 0.862 0.677 1.351 0.42l5.714-3.005 5.715 3.005c0.186 0.099 0.408 0.139 0.634 0.101 0.544-0.093 0.91-0.61 0.817-1.155l-1.091-6.362 4.623-4.503c0.151-0.146 0.259-0.344 0.292-0.572 0.080-0.546-0.298-1.054-0.845-1.134l-6.39-0.934zM12 4.259l2.193 4.444c0.151 0.305 0.436 0.499 0.752 0.547l4.906 0.717-3.549 3.457c-0.244 0.238-0.341 0.569-0.288 0.885l0.837 4.883-4.386-2.307c-0.301-0.158-0.647-0.148-0.931 0l-4.386 2.307 0.837-4.883c0.058-0.336-0.059-0.661-0.288-0.885l-3.549-3.457 4.907-0.718c0.336-0.049 0.609-0.26 0.752-0.546z"></path>
</symbol>
<symbol id="icon-thumbs-down" viewBox="0 0 24 24">
<path d="M11 15c0-0.552-0.448-1-1-1h-5.679c-0.065-0.002-0.153-0.011-0.153-0.011-0.273-0.041-0.502-0.188-0.655-0.396s-0.225-0.47-0.184-0.742l1.38-8.998c0.037-0.239 0.156-0.448 0.325-0.6 0.179-0.161 0.415-0.256 0.686-0.253h10.28v9.788l-3.608 8.118c-0.307-0.098-0.582-0.268-0.806-0.492-0.363-0.363-0.586-0.861-0.586-1.414zM9 16v3c0 1.104 0.449 2.106 1.172 2.828s1.724 1.172 2.828 1.172c0.405 0 0.754-0.241 0.914-0.594l4-9c0.060-0.134 0.087-0.275 0.086-0.406v-11c0-0.552-0.448-1-1-1h-11.28c-0.767-0.009-1.482 0.281-2.021 0.763-0.505 0.452-0.857 1.076-0.967 1.783l-1.38 9.002c-0.125 0.82 0.096 1.614 0.55 2.231s1.147 1.063 1.965 1.187c0.165 0.025 0.333 0.037 0.492 0.034zM17 3h2.67c0.361-0.006 0.674 0.119 0.912 0.332 0.213 0.191 0.364 0.45 0.418 0.746v6.787c-0.037 0.34-0.208 0.63-0.455 0.833-0.235 0.194-0.537 0.306-0.861 0.301l-2.684 0.001c-0.552 0-1 0.448-1 1s0.448 1 1 1h2.656c0.81 0.012 1.569-0.27 2.16-0.756 0.622-0.511 1.059-1.251 1.176-2.11 0.005-0.040 0.008-0.087 0.008-0.134v-7c0-0.042-0.003-0.089-0.009-0.137-0.111-0.803-0.505-1.51-1.075-2.020-0.6-0.537-1.397-0.858-2.246-0.842h-2.67c-0.552 0-1 0.448-1 1s0.448 1 1 1z"></path>
</symbol>
<symbol id="icon-thumbs-up" viewBox="0 0 24 24">
<path d="M13 9c0 0.552 0.448 1 1 1h5.679c0.065 0.002 0.153 0.011 0.153 0.011 0.273 0.041 0.502 0.188 0.655 0.396s0.225 0.47 0.184 0.742l-1.38 8.998c-0.037 0.239-0.156 0.448-0.325 0.6-0.18 0.161-0.415 0.256-0.686 0.253h-10.28v-9.788l3.608-8.118c0.307 0.098 0.582 0.268 0.806 0.492 0.363 0.363 0.586 0.861 0.586 1.414zM15 8v-3c0-1.104-0.449-2.106-1.172-2.828s-1.724-1.172-2.828-1.172c-0.405 0-0.754 0.241-0.914 0.594l-4 9c-0.060 0.134-0.087 0.275-0.086 0.406v11c0 0.552 0.448 1 1 1h11.28c0.767 0.009 1.482-0.281 2.021-0.763 0.505-0.452 0.857-1.076 0.967-1.783l1.38-9.002c0.125-0.82-0.096-1.614-0.55-2.231s-1.147-1.063-1.965-1.187c-0.165-0.025-0.333-0.037-0.492-0.034zM7 21h-3c-0.276 0-0.525-0.111-0.707-0.293s-0.293-0.431-0.293-0.707v-7c0-0.276 0.111-0.525 0.293-0.707s0.431-0.293 0.707-0.293h3c0.552 0 1-0.448 1-1s-0.448-1-1-1h-3c-0.828 0-1.58 0.337-2.121 0.879s-0.879 1.293-0.879 2.121v7c0 0.828 0.337 1.58 0.879 2.121s1.293 0.879 2.121 0.879h3c0.552 0 1-0.448 1-1s-0.448-1-1-1z"></path>
</symbol>
<symbol id="icon-bookmark" viewBox="0 0 20 20">
<path d="M14 2v17l-4-4-4 4v-17c0-0.553 0.585-1.020 1-1h6c0.689-0.020 1 0.447 1 1z"></path>
</symbol>
<symbol id="icon-chevron-small-right" viewBox="0 0 20 20">
<path d="M11 10l-3.141-3.42c-0.268-0.27-0.268-0.707 0-0.978 0.268-0.27 0.701-0.27 0.969 0l3.83 3.908c0.268 0.271 0.268 0.709 0 0.979l-3.83 3.908c-0.267 0.272-0.701 0.27-0.969 0s-0.268-0.707 0-0.978l3.141-3.419z"></path>
</symbol>
<symbol id="icon-flow-branch" viewBox="0 0 20 20">
<path d="M16.4 4c0-1.326-1.074-2.4-2.4-2.4s-2.4 1.074-2.4 2.4c0 0.961 0.568 1.784 1.384 2.167-0.082 1.584-1.27 2.122-3.335 2.896-0.87 0.327-1.829 0.689-2.649 1.234v-4.121c0.825-0.38 1.4-1.209 1.4-2.176 0-1.326-1.074-2.4-2.4-2.4s-2.4 1.074-2.4 2.4c0 0.967 0.576 1.796 1.4 2.176v7.649c-0.825 0.379-1.4 1.208-1.4 2.175 0 1.326 1.074 2.4 2.4 2.4s2.4-1.075 2.4-2.4c0-0.961-0.568-1.784-1.384-2.167 0.082-1.583 1.271-2.122 3.335-2.896 2.030-0.762 4.541-1.711 4.64-4.756 0.829-0.378 1.409-1.21 1.409-2.181zM6 2.615c0.764 0 1.384 0.619 1.384 1.385 0 0.764-0.62 1.385-1.384 1.385s-1.384-0.621-1.384-1.385c0-0.766 0.619-1.385 1.384-1.385zM6 17.385c-0.766 0-1.385-0.621-1.385-1.385 0-0.766 0.619-1.385 1.385-1.385 0.764 0 1.384 0.619 1.384 1.385 0 0.764-0.62 1.385-1.384 1.385zM14 5.385c-0.766 0-1.385-0.621-1.385-1.385 0-0.766 0.619-1.385 1.385-1.385 0.764 0 1.384 0.619 1.384 1.385 0 0.764-0.62 1.385-1.384 1.385z"></path>
</symbol>
<symbol id="icon-flow-tree" viewBox="0 0 20 20">
<path d="M18 14.824v-2.324c0-1.933-1.567-3.5-3.5-3.5h-2c-0.828 0-1.5-0.672-1.5-1.5v-2.324c0.825-0.38 1.4-1.208 1.4-2.176 0-1.326-1.074-2.4-2.4-2.4s-2.4 1.074-2.4 2.4c0 0.967 0.576 1.796 1.4 2.176v2.324c0 0.828-0.672 1.5-1.5 1.5h-2c-1.933 0-3.5 1.567-3.5 3.5v2.324c-0.825 0.38-1.4 1.209-1.4 2.176 0 1.326 1.074 2.4 2.4 2.4s2.4-1.075 2.4-2.4c0-0.967-0.576-1.796-1.4-2.176v-2.324c0-0.828 0.672-1.5 1.5-1.5h2c0.539 0 1.044-0.132 1.5-0.35v4.174c-0.825 0.38-1.4 1.209-1.4 2.176 0 1.326 1.074 2.4 2.4 2.4s2.4-1.075 2.4-2.4c0-0.967-0.576-1.796-1.4-2.176v-4.174c0.456 0.218 0.961 0.35 1.5 0.35h2c0.828 0 1.5 0.672 1.5 1.5v2.324c-0.825 0.38-1.4 1.208-1.4 2.176 0 1.326 1.074 2.4 2.4 2.4s2.4-1.075 2.4-2.4c0-0.967-0.575-1.796-1.4-2.176zM10 1.615c0.764 0 1.384 0.619 1.384 1.385 0 0.764-0.62 1.385-1.384 1.385s-1.384-0.621-1.384-1.385c0-0.766 0.619-1.385 1.384-1.385zM3 18.385c-0.766 0-1.385-0.621-1.385-1.385 0-0.766 0.619-1.385 1.385-1.385 0.764 0 1.384 0.619 1.384 1.385 0 0.764-0.62 1.385-1.384 1.385zM10 18.385c-0.766 0-1.385-0.621-1.385-1.385 0-0.766 0.619-1.385 1.385-1.385 0.764 0 1.384 0.619 1.384 1.385 0 0.764-0.62 1.385-1.384 1.385zM17 18.385c-0.766 0-1.385-0.621-1.385-1.385 0-0.766 0.619-1.385 1.385-1.385 0.764 0 1.384 0.619 1.384 1.385 0 0.764-0.62 1.385-1.384 1.385z"></path>
</symbol>
<symbol id="icon-aircraft-take-off" viewBox="0 0 20 20">
<path d="M19.87 6.453c0.119 0.257 0.127 1.29-4.884 3.642l-4.913 2.306c-1.71 0.803-4.191 1.859-5.285 2.151-0.766 0.204-1.497-0.316-1.497-0.316s-2.206-1.975-2.792-2.419c-0.585-0.444-0.535-0.67 0.215-0.91 0.467-0.149 3.13 0.493 4.265 0.78 1.339-0.8 2.562-1.486 3.141-1.798-1.396-1.033-4.008-2.962-4.841-3.55-0.799-0.565 0.010-0.768 0.010-0.768 0.368-0.099 1.162-0.228 1.562-0.144 2.721 0.569 7.263 2.071 7.611 2.186 0.832-0.436 2.128-1.092 2.922-1.465 2.075-0.974 4.327-0.037 4.486 0.305z"></path>
</symbol>
<symbol id="icon-chat" viewBox="0 0 20 20">
<path d="M5.8 12.2v-6.2h-3.8c-1.1 0-2 0.9-2 2v6c0 1.1 0.9 2 2 2h1v3l3-3h5c1.1 0 2-0.9 2-2v-1.82c-0.064 0.014-0.132 0.021-0.2 0.021l-7-0.001zM18 1h-9c-1.1 0-2 0.9-2 2v8h7l3 3v-3h1c1.1 0 2-0.899 2-2v-6c0-1.1-0.9-2-2-2z"></path>
</symbol>
<symbol id="icon-home" viewBox="0 0 20 20">
<path d="M18.672 11h-1.672v6c0 0.445-0.194 1-1 1h-4v-6h-4v6h-4c-0.806 0-1-0.555-1-1v-6h-1.672c-0.598 0-0.47-0.324-0.060-0.748l8.024-8.032c0.195-0.202 0.451-0.302 0.708-0.312 0.257 0.010 0.513 0.109 0.708 0.312l8.023 8.031c0.411 0.425 0.539 0.749-0.059 0.749z"></path>
</symbol>
<symbol id="icon-key" viewBox="0 0 20 20">
<path d="M17.691 4.725c-0.503-2.977-3.22-4.967-6.069-4.441s-5.256 2.816-4.753 5.795c0.107 0.641 0.408 1.644 0.763 2.365l-5.175 7.723c-0.191 0.285-0.299 0.799-0.242 1.141l0.333 1.971c0.058 0.342 0.372 0.572 0.7 0.514l1.516-0.281c0.328-0.059 0.744-0.348 0.924-0.639l2.047-3.311 0.018-0.022 1.386-0.256 2.39-3.879c0.785 0.139 1.912 0.092 2.578-0.031 2.848-0.526 4.087-3.67 3.584-6.649zM15.166 6.252c-0.784 1.17-1.584 0.346-2.703-0.475-1.119-0.818-2.135-1.322-1.352-2.492s2.326-1.455 3.447-0.635c1.12 0.819 1.391 2.432 0.608 3.602z"></path>
</symbol>
<symbol id="icon-location-pin" viewBox="0 0 20 20">
<path d="M10 2.009c-2.762 0-5 2.229-5 4.99 0 4.774 5 11 5 11s5-6.227 5-11c0-2.76-2.238-4.99-5-4.99zM10 9.76c-1.492 0-2.7-1.209-2.7-2.7s1.208-2.7 2.7-2.7c1.49 0 2.699 1.209 2.699 2.7s-1.209 2.7-2.699 2.7z"></path>
</symbol>
<symbol id="icon-magnifying-glass" viewBox="0 0 20 20">
<path d="M17.545 15.467l-3.779-3.779c0.57-0.935 0.898-2.035 0.898-3.21 0-3.417-2.961-6.377-6.378-6.377s-6.186 2.769-6.186 6.186c0 3.416 2.961 6.377 6.377 6.377 1.137 0 2.2-0.309 3.115-0.844l3.799 3.801c0.372 0.371 0.975 0.371 1.346 0l0.943-0.943c0.371-0.371 0.236-0.84-0.135-1.211zM4.004 8.287c0-2.366 1.917-4.283 4.282-4.283s4.474 2.107 4.474 4.474c0 2.365-1.918 4.283-4.283 4.283s-4.473-2.109-4.473-4.474z"></path>
</symbol>
<symbol id="icon-map" viewBox="0 0 20 20">
<path d="M19.447 3.718l-6-3c-0.281-0.141-0.613-0.141-0.895 0l-5.63 2.815-5.606-1.869c-0.306-0.102-0.64-0.051-0.901 0.138s-0.415 0.49-0.415 0.811v13.001c0 0.379 0.214 0.725 0.553 0.894l6 3c0.141 0.070 0.294 0.106 0.447 0.106s0.307-0.035 0.447-0.106l5.63-2.814 5.606 1.869c0.305 0.1 0.64 0.049 0.901-0.139s0.415-0.49 0.415-0.81v-13.002c0.001-0.379-0.213-0.725-0.552-0.894zM8 5.231l4-2v11.763l-4 2v-11.763zM2 4l4 1.333v11.661l-4-2v-10.994zM18 16.227l-4-1.334v-11.662l4 2v10.996z"></path>
</symbol>
<symbol id="icon-pin" viewBox="0 0 20 20">
<path d="M4.774 15.287l-2.105 3.25 0.224 1.063 1.060-0.227 2.104-3.248c-0.224-0.12-0.446-0.248-0.661-0.39-0.218-0.141-0.426-0.292-0.622-0.448zM13.686 14.152c0.014-0.029 0.023-0.061 0.036-0.092 0.053-0.117 0.1-0.234 0.138-0.357 0.006-0.022 0.009-0.044 0.016-0.064 0.039-0.136 0.072-0.27 0.098-0.408 0-0.007 0-0.012 0-0.021 0.195-1.169-0.145-2.473-0.923-3.651l1.11-1.714c1.279 0.163 2.385-0.159 2.917-0.982 0.923-1.423-0.2-3.792-2.505-5.293-2.307-1.502-4.923-1.565-5.844-0.144-0.534 0.824-0.378 1.967 0.293 3.073l-1.112 1.714c-1.389-0.233-2.716-0.016-3.703 0.64-0.006 0.002-0.013 0.004-0.017 0.008-0.115 0.078-0.227 0.164-0.332 0.254-0.017 0.014-0.037 0.027-0.051 0.041-0.098 0.084-0.186 0.178-0.271 0.272-0.020 0.024-0.048 0.045-0.067 0.070-0.106 0.121-0.204 0.249-0.29 0.385-1.384 2.133-0.203 5.361 2.633 7.209 2.838 1.848 6.26 1.614 7.641-0.519 0.087-0.135 0.167-0.276 0.233-0.421zM12.871 4.194c-0.887-0.577-1.32-1.487-0.965-2.036 0.354-0.547 1.361-0.522 2.246 0.055 0.889 0.577 1.318 1.489 0.965 2.036s-1.358 0.522-2.246-0.055z"></path>
</symbol>
<symbol id="icon-star1" viewBox="0 0 20 20">
<path d="M10 1.3l2.388 6.722h6.412l-5.232 3.948 1.871 6.928-5.439-4.154-5.438 4.154 1.87-6.928-5.233-3.948h6.412l2.389-6.722z"></path>
</symbol>
<symbol id="icon-github1" viewBox="0 0 32 32">
<path d="M16 0.395c-8.836 0-16 7.163-16 16 0 7.069 4.585 13.067 10.942 15.182 0.8 0.148 1.094-0.347 1.094-0.77 0-0.381-0.015-1.642-0.022-2.979-4.452 0.968-5.391-1.888-5.391-1.888-0.728-1.849-1.776-2.341-1.776-2.341-1.452-0.993 0.11-0.973 0.11-0.973 1.606 0.113 2.452 1.649 2.452 1.649 1.427 2.446 3.743 1.739 4.656 1.33 0.143-1.034 0.558-1.74 1.016-2.14-3.554-0.404-7.29-1.777-7.29-7.907 0-1.747 0.625-3.174 1.649-4.295-0.166-0.403-0.714-2.030 0.155-4.234 0 0 1.344-0.43 4.401 1.64 1.276-0.355 2.645-0.532 4.005-0.539 1.359 0.006 2.729 0.184 4.008 0.539 3.054-2.070 4.395-1.64 4.395-1.64 0.871 2.204 0.323 3.831 0.157 4.234 1.026 1.12 1.647 2.548 1.647 4.295 0 6.145-3.743 7.498-7.306 7.895 0.574 0.497 1.085 1.47 1.085 2.963 0 2.141-0.019 3.864-0.019 4.391 0 0.426 0.288 0.925 1.099 0.768 6.354-2.118 10.933-8.113 10.933-15.18 0-8.837-7.164-16-16-16z"></path>
</symbol>
<symbol id="icon-wikipedia" viewBox="0 0 32 32">
<path d="M30.212 7.3c0 0.1-0.031 0.194-0.094 0.281-0.063 0.081-0.131 0.125-0.212 0.125-0.625 0.063-1.137 0.263-1.531 0.6-0.4 0.338-0.806 0.994-1.225 1.95l-6.45 14.544c-0.044 0.137-0.163 0.2-0.356 0.2-0.15 0-0.269-0.069-0.356-0.2l-3.619-7.563-4.162 7.563c-0.088 0.137-0.2 0.2-0.356 0.2-0.188 0-0.306-0.069-0.369-0.2l-6.331-14.537c-0.394-0.9-0.813-1.531-1.25-1.887s-1.050-0.581-1.831-0.662c-0.069 0-0.131-0.037-0.188-0.106-0.063-0.069-0.087-0.15-0.087-0.244 0-0.237 0.069-0.356 0.2-0.356 0.562 0 1.156 0.025 1.775 0.075 0.575 0.050 1.112 0.075 1.619 0.075 0.513 0 1.125-0.025 1.825-0.075 0.731-0.050 1.381-0.075 1.95-0.075 0.137 0 0.2 0.119 0.2 0.356s-0.044 0.35-0.125 0.35c-0.563 0.044-1.012 0.188-1.338 0.431s-0.487 0.563-0.487 0.963c0 0.2 0.069 0.456 0.2 0.756l5.231 11.825 2.975-5.613-2.769-5.806c-0.5-1.037-0.906-1.706-1.225-2.006s-0.806-0.481-1.456-0.55c-0.063 0-0.113-0.037-0.169-0.106s-0.081-0.15-0.081-0.244c0-0.237 0.056-0.356 0.175-0.356 0.563 0 1.081 0.025 1.556 0.075 0.456 0.050 0.938 0.075 1.456 0.075 0.506 0 1.037-0.025 1.606-0.075 0.581-0.050 1.156-0.075 1.719-0.075 0.137 0 0.2 0.119 0.2 0.356s-0.038 0.35-0.125 0.35c-1.131 0.075-1.694 0.4-1.694 0.963 0 0.25 0.131 0.644 0.394 1.175l1.831 3.719 1.825-3.4c0.25-0.481 0.381-0.887 0.381-1.213 0-0.775-0.563-1.188-1.694-1.237-0.1 0-0.15-0.119-0.15-0.35 0-0.088 0.025-0.162 0.075-0.237s0.1-0.112 0.15-0.112c0.406 0 0.9 0.025 1.494 0.075 0.563 0.050 1.031 0.075 1.394 0.075 0.262 0 0.644-0.025 1.15-0.063 0.637-0.056 1.175-0.088 1.606-0.088 0.1 0 0.15 0.1 0.15 0.3 0 0.269-0.094 0.406-0.275 0.406-0.656 0.069-1.188 0.25-1.587 0.544s-0.9 0.963-1.5 2.013l-2.444 4.475 3.288 6.7 4.856-11.294c0.169-0.412 0.25-0.794 0.25-1.137 0-0.825-0.563-1.263-1.694-1.319-0.1 0-0.15-0.119-0.15-0.35 0-0.237 0.075-0.356 0.225-0.356 0.413 0 0.9 0.025 1.469 0.075 0.525 0.050 0.962 0.075 1.313 0.075 0.375 0 0.8-0.025 1.288-0.075 0.506-0.050 0.962-0.075 1.369-0.075 0.125 0 0.188 0.1 0.188 0.3z"></path>
</symbol>
</defs>
</svg>
